<?xml version="1.0" encoding="utf-8"?>
<svg xmlns="http://www.w3.org/2000/svg" fill="none" height="220" viewBox="0 0 1056 220" width="1056">
<mask height="139" id="mask0_2413_3" maskUnits="userSpaceOnUse" style="mask-type:luminance" width="102" x="0" y="0">
<path d="M0 0H101.582V138.265H0V0Z" fill="white"/>
</mask>
<g mask="url(#mask0_2413_3)">
<path d="M54.2652 78.8303C54.2652 72.0896 55.8862 69.9139 62.5268 67.772L100.168 54.7742V0L20.0504 27.0638C8.73119 30.9542 1.11798 41.6583 1.11798 53.6948V137.72L47.837 120.387C51.6883 118.971 54.2652 115.238 54.2652 111.106V78.8303Z" fill="black"/>
</g>
<mask height="140" id="mask1_2413_3" maskUnits="userSpaceOnUse" style="mask-type:luminance" width="102" x="52" y="80">
<path d="M52.9333 80.6971H153.101V219.12H52.9333V80.6971Z" fill="white"/>
</mask>
<g mask="url(#mask1_2413_3)">
<path d="M152.048 81.3999L105.329 98.7266C101.478 100.149 98.901 103.882 98.901 108.014V140.289C98.901 147.03 97.28 149.2 90.6394 151.342L52.9982 164.345V219.12L133.116 192.05C144.435 188.177 152.048 177.473 152.048 165.425V81.3999Z" fill="black"/>
</g>
<path d="M254.903 144.92C249.263 142.355 244.781 138.847 241.466 134.419C238.157 129.986 236.335 125.059 236 119.655L258.06 119.541C258.496 122.936 260.145 125.734 263.035 127.954C265.908 130.162 269.49 131.263 273.777 131.235C277.947 131.223 281.205 130.349 283.541 128.641C285.883 126.938 287.04 124.758 287.04 122.107C287.023 119.241 285.576 117.106 282.697 115.687C279.825 114.268 275.253 112.735 268.982 111.055C262.498 109.494 257.2 107.876 253.08 106.202C248.95 104.522 245.401 101.945 242.4 98.4594C239.409 94.9798 237.9 90.2627 237.872 84.3309C237.844 79.4549 239.214 74.9876 241.964 70.9461C244.708 66.9045 248.654 63.6917 253.801 61.3417C258.944 58.9803 265.019 57.7883 272.011 57.7485C282.345 57.6861 290.589 60.2802 296.765 65.4968C302.941 70.7133 306.362 77.7804 307.038 86.6809L286.079 86.7831C285.755 83.2865 284.307 80.5051 281.742 78.4559C279.176 76.4067 275.75 75.385 271.48 75.402C267.517 75.419 264.46 76.174 262.331 77.6782C260.201 79.1711 259.145 81.2487 259.156 83.8995C259.173 86.8683 260.637 89.1161 263.571 90.6374C266.5 92.153 271.038 93.7026 277.198 95.2636C283.474 96.8246 288.633 98.448 292.719 100.123C296.793 101.797 300.331 104.408 303.321 107.95C306.306 111.487 307.871 116.175 308 122.005C308.028 127.097 306.658 131.666 303.925 135.708C301.175 139.749 297.229 142.928 292.087 145.238C286.928 147.543 280.92 148.718 274.029 148.746C266.936 148.792 260.57 147.514 254.914 144.949L254.903 144.92Z" fill="black"/>
<path d="M399.188 67.4163C405.507 73.8858 408.696 82.9632 408.752 94.6096L409 145.357L387.373 145.469L387.136 97.6744C387.108 90.8092 385.381 85.5377 381.959 81.8488C378.549 78.1766 373.902 76.3488 368.025 76.3767C362.054 76.4045 357.352 78.2769 353.914 81.9881C350.476 85.7049 348.776 90.9931 348.82 97.8583L349.058 145.636L327.43 145.747L327 59.2415L348.627 59.1301L348.682 69.9071C351.546 66.1513 355.211 63.1812 359.692 61.0303C364.156 58.8738 369.068 57.776 374.426 57.7481C384.63 57.6924 392.886 60.9133 399.188 67.3884V67.4163Z" fill="black"/>
<path d="M430.031 78.4062C433.446 71.4971 438.075 66.1663 443.968 62.425C449.846 58.6838 456.432 56.7876 463.711 56.7479C470.078 56.7195 475.653 58.0082 480.436 60.6481C485.219 63.2709 489.056 66.592 491.943 70.6058L491.888 58.0366L513.588 57.9231L514 146.055L492.3 146.168L492.245 133.287C489.502 137.443 485.686 140.883 480.837 143.602C475.971 146.327 470.369 147.718 464.003 147.747C456.822 147.792 450.274 145.913 444.353 142.115C438.438 138.328 433.748 132.969 430.268 126.032C426.804 119.111 425.039 111.129 425.001 102.114C424.957 93.1951 426.634 85.2982 430.048 78.3778L430.031 78.4062ZM488.946 88.2106C486.879 84.3501 484.092 81.3866 480.601 79.3372C477.104 77.2878 473.349 76.2715 469.357 76.2999C465.35 76.3113 461.66 77.3445 458.29 79.3769C454.909 81.415 452.177 84.3671 450.099 88.2503C448.015 92.1334 446.976 96.7206 447.003 102.023C447.031 107.331 448.097 111.958 450.219 115.926C452.342 119.9 455.129 122.938 458.582 125.027C462.034 127.139 465.696 128.166 469.605 128.155C473.613 128.138 477.34 127.082 480.82 124.987C484.301 122.892 487.061 119.912 489.084 116.028C491.123 112.145 492.124 107.501 492.097 102.097C492.069 96.6922 491.013 92.0483 488.946 88.1935V88.2106Z" fill="black"/>
<path d="M569.813 60.835C574.785 58.1477 580.478 56.7761 586.897 56.7481C594.352 56.7089 601.109 58.5172 607.173 62.1339C613.237 65.7674 618.041 70.9405 621.605 77.67C625.152 84.3995 626.954 92.2152 626.999 101.106C627.044 109.996 625.321 117.885 621.83 124.737C618.339 131.607 613.592 136.937 607.573 140.738C601.554 144.54 594.808 146.449 587.353 146.494C580.945 146.522 575.28 145.245 570.382 142.647C565.483 140.061 561.507 136.78 558.439 132.822L558.709 186.635L536.642 186.747L536 58.4052L558.067 58.2933L558.123 70.8397C560.939 66.8535 564.841 63.5056 569.813 60.8182V60.835ZM601.154 87.6635C598.98 83.8621 596.126 80.962 592.606 78.9969C589.07 77.0318 585.264 76.0576 581.159 76.0744C577.167 76.0856 573.405 77.1325 569.897 79.1816C566.389 81.2475 563.563 84.2148 561.434 88.089C559.306 91.9744 558.242 96.5261 558.27 101.755C558.298 106.984 559.39 111.536 561.564 115.393C563.737 119.251 566.592 122.196 570.111 124.217C573.647 126.238 577.398 127.24 581.401 127.212C585.506 127.195 589.295 126.12 592.82 124.015C596.328 121.91 599.149 118.915 601.283 115.029C603.412 111.155 604.476 106.548 604.448 101.201C604.42 95.9718 603.327 91.4482 601.154 87.6467V87.6635Z" fill="black"/>
<path d="M667.333 75.5094L667.545 117.799C667.561 120.739 668.274 122.872 669.682 124.179C671.084 125.485 673.455 126.127 676.783 126.11L686.9 126.054L687 144.679L673.288 144.747C654.901 144.848 645.663 135.834 645.579 117.754L645.373 75.622L635.083 75.6783L635 57.5371L645.284 57.4808L645.173 35.86L667.138 35.7474L667.25 57.3682L686.566 57.2669L686.649 75.4081L667.333 75.5094Z" fill="black"/>
<path d="M735.543 59.7701C740.007 57.1109 745.128 55.7756 750.89 55.7474L751 78.9594L745.283 78.9876C738.49 79.0158 733.368 80.6778 729.93 83.968C726.492 87.2527 724.798 92.943 724.837 101.05L725.046 144.629L703.419 144.747L703 57.2799L724.627 57.1672L724.699 70.7507C727.453 66.1027 731.073 62.4575 735.543 59.7983V59.7701Z" fill="black"/>
<path d="M847.57 56.7474L848 143.407L825.684 143.519L825.628 132.566C822.806 136.329 819.097 139.304 814.518 141.459C809.944 143.619 804.968 144.719 799.574 144.747C792.716 144.775 786.644 143.379 781.352 140.532C776.065 137.685 771.898 133.482 768.862 127.916C765.826 122.351 764.283 115.713 764.254 107.987L764 57.1549L786.158 57.0433L786.401 104.75C786.429 111.627 788.199 116.908 791.704 120.604C795.215 124.293 799.959 126.113 805.98 126.085C812.098 126.057 816.887 124.182 820.352 120.464C823.818 116.741 825.526 111.443 825.497 104.566L825.254 56.8591L847.57 56.7474Z" fill="black"/>
<path d="M869.076 76.228C872.512 69.4013 877.237 64.1341 883.236 60.4375C889.24 56.7409 895.911 54.873 903.288 54.8337C908.892 54.8057 914.234 56.0061 919.338 58.4406C924.43 60.8806 928.494 64.1341 931.524 68.2009L931.329 26.8596L953.422 26.7474L954 143.075L931.902 143.187L931.846 130.303C929.167 134.605 925.398 138.088 920.533 140.736C915.669 143.384 910.015 144.719 903.594 144.747C896.334 144.786 889.685 142.935 883.642 139.182C877.599 135.441 872.835 130.146 869.327 123.291C865.824 116.447 864.045 108.561 864.001 99.6528C863.956 90.8461 865.658 83.0434 869.104 76.1999L869.076 76.228ZM928.65 85.9154C926.559 82.1066 923.741 79.1785 920.211 77.1479C916.675 75.1229 912.878 74.1188 908.836 74.1469C904.784 74.1637 901.059 75.1846 897.651 77.1928C894.227 79.2066 891.469 82.1235 889.362 85.9603C887.261 89.7971 886.21 94.3295 886.238 99.5687C886.266 104.808 887.344 109.385 889.49 113.306C891.636 117.227 894.455 120.234 897.946 122.298C901.437 124.379 905.14 125.4 909.092 125.389C913.145 125.372 916.914 124.323 920.433 122.27C923.952 120.206 926.743 117.255 928.789 113.418C930.851 109.581 931.857 104.993 931.83 99.6528C931.802 94.3127 930.74 89.7242 928.65 85.9154Z" fill="black"/>
<path d="M1055.42 105.717L992.203 106.035C992.749 112.399 994.957 117.372 998.827 120.954C1002.69 124.536 1007.43 126.313 1013.06 126.285C1021.17 126.239 1026.93 122.657 1030.32 115.538L1053.89 115.419C1051.43 123.917 1046.68 130.917 1039.63 136.418C1032.59 141.92 1023.91 144.69 1013.61 144.747C1005.28 144.787 997.801 142.941 991.177 139.212C984.553 135.487 979.379 130.185 975.654 123.304C971.924 116.424 970.04 108.481 970.001 99.4661C969.956 90.3543 971.729 82.3269 975.342 75.4178C978.955 68.5088 984.018 63.178 990.558 59.4368C997.098 55.6955 1004.63 53.788 1013.17 53.7483C1021.38 53.7029 1028.76 55.4685 1035.29 59.0507C1041.81 62.6159 1046.87 67.7197 1050.5 74.3278C1054.13 80.936 1055.96 88.549 1056 97.1328C1056.02 100.312 1055.82 103.179 1055.41 105.734L1055.42 105.717ZM1033.35 90.871C1033.22 85.1371 1031.17 80.5613 1027.19 77.138C1023.21 73.7147 1018.37 72.0059 1012.65 72.0343C1007.23 72.0627 1002.69 73.7545 999.011 77.1096C995.325 80.4648 993.089 85.12 992.287 91.0697L1033.33 90.8539L1033.35 90.871Z" fill="black"/>
</svg>